<svg width="177" height="228" viewBox="0 0 177 228" fill="none" xmlns="http://www.w3.org/2000/svg">
<path d="M165.37 201.959C165.21 205.589 165.157 209.273 164.785 212.904C164.093 219.364 163.561 216.428 157.337 216.054C144.675 215.306 131.588 216.534 118.82 216.161C107.222 215.787 95.6242 215.68 84.0265 215.84C59.9268 216.054 35.8802 216.801 11.8336 216.908C12.0996 211.943 11.5144 206.444 11.5676 203.347C11.8336 188.451 11.8868 173.555 11.94 158.659C12.0464 123.101 14.0149 87.7034 14.1213 52.1454C21.7289 53.4802 29.0706 55.509 36.359 58.2319C40.7746 59.9404 47.9035 63.7845 52.5319 60.5811C57.5327 57.1641 57.5859 47.2335 58.3307 41.9479C59.7672 32.2842 58.7563 22.0333 60.4056 12.423C66.0448 11.5688 73.3864 12.69 78.4937 12.6366C107.009 12.2094 135.524 11.3552 164.04 10.8213C164.199 11.9425 164.572 13.5442 164.625 14.1849C165.104 18.6163 165.21 23.1545 165.317 27.6392C165.689 39.7055 165.689 51.7717 165.636 63.7845C165.529 78.0931 164.944 92.4551 165.104 106.764C165.37 127.479 165.742 148.195 165.742 168.91C165.742 179.909 165.742 190.96 165.37 201.959ZM41.3066 26.7316C43.8602 24.596 46.6267 21.446 49.4995 18.6697C49.3931 21.1256 49.3931 23.5816 49.3399 26.0909C49.1803 29.7215 48.9675 33.352 48.5419 36.9292C48.4355 37.73 47.5311 48.7284 46.3075 49.903C44.7647 51.3446 34.231 46.2725 31.5178 45.4182C27.9533 44.297 24.3357 43.4428 20.6649 42.6953C27.6873 37.5699 34.6566 32.391 41.3066 26.7316ZM163.614 8.57889C163.774 8.84585 163.987 9.05941 164.199 9.27297C164.199 9.37975 164.199 9.48653 164.146 9.6467C163.189 9.05941 163.348 8.68568 163.614 8.57889ZM176.063 63.7845C176.17 49.4759 176.276 35.0605 175.531 20.7519C175.265 15.9468 176.01 5.16191 171.275 1.47798C170.53 0.783903 169.626 0.356781 168.402 0.30339C168.136 0.25 167.817 0.25 167.551 0.25C133.13 0.837294 98.7098 2.06527 64.2892 2.27883C58.2775 2.27883 53.8087 1.26442 49.2335 5.16191C42.9558 10.4476 37.3166 16.5341 30.9326 21.8197C24.3889 27.2121 17.5793 32.2308 10.7164 37.1961C6.35401 40.3462 4.17279 41.3606 3.69399 46.6996C2.36398 62.3964 3.32159 78.6804 3.16199 94.4306C3.05558 108.526 1.45957 122.407 1.51277 136.556C1.56598 149.85 1.51277 163.144 1.40637 176.438C1.35317 186.315 1.24677 196.139 1.08717 206.016C0.980771 209.433 0.927571 212.904 0.76797 216.321C0.71477 217.175 0.289167 218.937 0.608369 219.738C0.608369 219.791 0.608369 219.845 0.608369 219.898C0.82117 219.524 1.19357 219.044 1.72558 218.51C1.24677 218.99 0.927571 219.524 0.661569 220.111C0.76797 220.592 0.555169 220.859 0.448768 220.859C-0.296037 223.902 1.83198 227.426 5.4496 227.426C30.9858 227.426 56.4687 226.625 82.0049 226.305C106.424 226.038 131.056 228.173 155.475 226.678C166.806 225.931 173.669 226.678 174.999 214.986C176.116 205.269 176.01 195.338 176.116 185.568C176.542 144.991 175.797 104.415 176.063 63.7845Z" fill="black"/>
<path d="M49.8044 113.645C54.8605 111.961 56.3722 106.147 58.5614 101.583C61.3241 95.7687 63.9825 89.9547 66.5887 84.1407C69.3514 77.9464 60.4901 72.5127 57.7274 78.7071C54.8084 85.3361 52.0979 92.7802 48.6055 99.4636C48.3449 98.9745 48.0842 98.4855 47.8236 98.0508C44.3312 92.2912 35.4699 97.6161 38.9623 103.484C40.7867 106.419 42.3504 109.787 44.8003 112.233C46.1035 113.537 48.0321 114.189 49.8044 113.645Z" fill="black"/>
<path d="M85.482 104.926C100.731 104.444 115.979 103.48 131.175 102.141C137.794 101.551 137.847 91.0003 131.175 91.5894C115.979 92.982 100.731 93.8925 85.482 94.4281C78.8107 94.6423 78.8107 105.14 85.482 104.926Z" fill="black"/>
<path d="M47.8959 151.068C50.6277 152.471 53.7271 151.419 55.4607 149.113C57.1418 146.908 58.1925 144.101 59.5058 141.696C61.0818 138.588 62.7103 135.531 64.2863 132.474C67.2807 126.81 58.3501 121.799 55.4082 127.462C53.5695 130.97 51.8885 134.88 49.9447 138.588C49.6821 138.187 49.4194 137.837 49.1567 137.536C47.3706 135.431 43.6933 135.832 41.8546 137.536C39.7007 139.541 40.121 142.397 41.8546 144.502C43.5882 146.557 45.3743 149.765 47.8959 151.068Z" fill="black"/>
<path d="M128.927 147.201C135.627 148.046 135.573 136.949 128.927 136.161C114.508 134.358 100.09 133.626 85.5639 133.964C78.8102 134.133 78.7566 145.173 85.5639 145.061C100.09 144.723 114.508 145.399 128.927 147.201Z" fill="black"/>
<path d="M61.476 165.29C59.2921 168.759 57.0537 172.228 54.8698 175.698C53.8325 177.327 52.7951 178.957 51.7578 180.586C51.6486 180.744 51.594 180.849 51.4848 181.007C50.9935 180.218 50.6113 179.377 50.2291 178.641C47.2263 172.701 37.9449 177.905 41.0023 183.845C43.6776 189.154 50.3929 198.248 56.9445 191.783C59.7289 188.997 61.5852 184.897 63.6598 181.637C66.0621 177.905 68.4097 174.226 70.7573 170.494C74.3607 164.817 65.0793 159.613 61.476 165.29Z" fill="black"/>
<path d="M131.862 174.544C117.482 176.8 103.154 172.183 88.6676 174.806C82.1117 176.013 84.9138 185.93 91.4697 184.723C105.745 182.152 120.178 186.717 134.611 184.461C141.22 183.464 138.418 173.547 131.862 174.544Z" fill="black"/>
</svg>
