<svg width="343" height="208" viewBox="0 0 343 208" fill="none" xmlns="http://www.w3.org/2000/svg">
<path d="M291.578 158.426C280.038 147.799 258.589 155.297 244.767 156.862C225.077 159.013 205.453 160.839 185.894 163.968C175.006 165.663 161.576 170.162 158.837 156.471C157.077 147.473 158.642 136.325 158.968 127.002C162.423 126.35 166.4 126.871 169.66 126.806C182.895 126.61 196 125.241 208.909 122.047C209.43 121.916 209.886 121.786 210.278 121.525C218.036 118.787 220.644 112.463 221.361 105.095C221.622 105.161 221.883 105.226 222.144 105.226C238.247 105.617 254.286 105.943 270.389 106.334C278.604 106.53 278.604 93.686 270.389 93.5556C254.286 93.1644 238.247 92.7732 222.144 92.3821C221.948 92.3821 221.687 92.4473 221.492 92.4473C221.361 89.709 221.231 87.0359 221.296 84.5584C221.492 73.0186 221.557 61.4787 221.557 49.8737C243.267 49.1565 265.239 49.6129 286.754 51.8948C299.858 53.2639 311.528 56.5238 323.655 61.2832C330.827 64.0866 329.718 67.4769 329.653 75.1049C329.392 112.984 326.98 151.45 321.634 189.069C311.202 179.159 302.14 168.206 291.578 158.426ZM121.806 147.082C117.046 152.233 112.156 157.253 107.136 162.143C104.594 164.62 100.16 170.097 95.7268 173.617C95.9224 158.492 96.7048 143.366 95.9224 128.306C95.466 119.569 93.1841 117.026 83.9914 117.352C62.4112 118.135 41.2874 119.634 19.8377 117.613C18.0774 94.4684 16.317 71.3887 14.4915 48.2438C14.0352 41.8545 10.8405 32.5965 17.2298 28.2936C20.8156 25.8161 31.1819 25.8161 34.7678 25.3597C46.764 23.795 58.8254 22.817 70.8216 21.6435C116.003 17.2101 163.075 9.90804 208.387 16.1017C208.648 32.1402 208.843 48.1134 208.713 64.1518C208.713 70.6063 211.777 107.964 205.518 109.724C191.957 113.049 178.592 113.767 164.77 114.027C157.729 114.093 151.47 114.875 145.863 119.439C136.67 126.936 129.825 138.346 121.806 147.082ZM83.1438 126.48C83.3394 124.394 83.209 125.111 83.1438 126.48ZM83.1438 130.587C83.6002 130.457 83.861 130.327 83.9914 130.196C83.535 130.979 83.2742 130.979 83.1438 130.587ZM342.04 64.0866C339.693 47.1354 312.702 42.9628 298.815 40.681C273.584 36.5736 247.114 36.1824 221.492 37.0951C221.426 28.2284 221.296 19.4268 221.1 10.56C221.035 8.01733 219.144 4.82269 216.406 4.36631C161.51 -4.23967 104.202 5.47466 49.3719 10.9512C34.1158 12.5159 1.58256 10.234 0.539408 31.423C-0.177757 45.8315 2.6909 61.4136 3.79925 75.8221C5.03799 91.6649 6.27673 107.508 7.45027 123.416C7.77626 127.197 10.1885 129.349 13.8396 129.805C32.2251 132.152 50.4802 131.891 68.8657 130.979C69.9741 130.913 79.7536 131.305 82.9482 130.587C83.0134 132.739 83.2742 134.825 83.2742 136.846C83.3394 152.298 82.6874 167.75 82.883 183.136C82.9482 186.461 85.8169 189.786 89.3375 189.591C99.443 189.004 105.832 181.115 112.808 174.465C123.501 164.229 133.671 153.472 143.125 142.192C143.842 141.345 144.559 140.367 145.276 139.324C144.429 151.842 144.298 166.25 152.318 173.683C164.184 184.636 188.502 176.095 202.193 174.334C213.798 172.835 225.534 171.727 237.204 170.488C243.919 169.771 250.569 168.988 257.285 168.271C263.348 167.619 271.302 165.337 277.3 166.054C285.384 167.098 290.47 176.942 296.012 182.81C304.031 191.22 312.637 198.914 321.699 206.151C324.959 208.824 331.544 208.628 332.391 203.347C336.825 175.182 339.172 147.017 340.671 118.526C341.649 101.118 344.453 81.4942 342.04 64.0866Z" fill="black"/>
<path d="M150.035 89.4306C153.817 85.1929 157.598 80.9551 161.379 76.7173C166.921 70.5888 157.859 61.5264 152.382 67.6549C150.557 69.7412 148.666 71.7623 146.841 73.7834C142.994 66.4162 137.909 57.8102 131.128 57.8754C127.151 57.8754 124.804 60.2877 122.066 62.8303C119.523 65.047 107.07 80.6943 104.137 80.3031C107.722 80.8247 98.4644 64.9818 97.4213 63.8083C95.4002 61.5264 93.2487 59.7661 90.0541 59.4401C85.4251 58.9837 82.1 62.1784 79.3618 65.3078C72.4509 73.2618 74.0808 74.5658 68.0827 63.8083C64.1057 56.5714 53.0222 63.0259 57.0645 70.2628C60.9111 77.2388 65.4096 91.6473 76.1671 87.8007C79.9485 86.4968 82.9476 82.3894 85.0339 79.0643C88.4241 73.653 86.0119 71.0451 89.9237 76.0653C92.2707 78.9991 93.5747 82.7154 95.661 85.7796C100.355 92.6253 104.984 95.168 112.221 90.1478C117.828 86.236 121.805 78.0212 127.868 75.0221C131.976 73.001 129.433 72.6751 132.823 76.5869C135.627 79.9119 137.713 84.4105 139.995 88.1267C142.081 91.4517 147.232 92.5601 150.035 89.4306Z" fill="black"/>
</svg>
