<svg width="150" height="206" viewBox="0 0 150 206" fill="none" xmlns="http://www.w3.org/2000/svg">
<path fill-rule="evenodd" clip-rule="evenodd" d="M59.3145 187.836L63.8285 205.933H85.5455L89.7705 187.533L59.3145 187.836Z" fill="#61A706"/>
<path fill-rule="evenodd" clip-rule="evenodd" d="M70.6456 175.051L71.4714 177.597L71.9943 178.739L77.224 178.767L77.8433 178.464L78.6003 176.689C81.8344 168.362 90.312 132.883 92.0736 123.827C96.8492 99.2477 100.441 74.214 98.6933 49.1252C98.0327 39.643 96.2436 29.046 92.6929 20.183C89.9955 13.3706 85.9218 5.58114 78.7654 2.55342C70.9897 -0.722019 63.4754 7.24639 60.1312 13.7009C42.3365 47.9967 53.6904 107.134 62.0166 142.186L64.8104 154.215C66.6545 161.178 68.7464 167.358 70.6456 175.051Z" fill="#979797"/>
<path fill-rule="evenodd" clip-rule="evenodd" d="M68.4115 176.785L65.315 174.239C28.3768 139.544 -22.2824 22.9223 57.5668 1.41171C60.8285 0.544682 60.1541 0.751117 63.2919 0.599731C0.563102 27.629 42.8961 133.021 68.4115 176.785Z" fill="#979797"/>
<path fill-rule="evenodd" clip-rule="evenodd" d="M81.7793 176.785L84.8621 174.239C121.8 139.544 172.459 22.9223 92.6103 1.41171C89.3624 0.544682 90.0367 0.751117 86.8851 0.599731C149.628 27.629 107.308 133.021 81.7793 176.785Z" fill="#979797"/>
<path fill-rule="evenodd" clip-rule="evenodd" d="M31.8052 9.86194C16.0886 17.1698 4.0328 33.0377 1.43172 50.2545L0.826172 57.576L0.894984 63.4526L1.72073 69.9346L2.17488 73.0312C8.35418 107.079 36.6358 151.697 61.5319 175.354C27.1123 129.429 -24.8131 56.8053 31.8052 9.86194Z" fill="#979797"/>
<path fill-rule="evenodd" clip-rule="evenodd" d="M118.387 9.86157C134.09 17.1694 146.159 33.0374 148.76 50.2541L149.366 57.5757L149.283 63.4522L148.458 69.9343L148.004 73.0308C141.81 107.079 113.529 151.696 88.6465 175.354C123.066 129.429 175.005 56.805 118.387 9.86157Z" fill="#979797"/>
</svg>
