<svg width="242" height="238" viewBox="0 0 242 238" fill="none" xmlns="http://www.w3.org/2000/svg">
<path d="M230.884 89.5039C226.488 99.6779 214.388 96.0725 206.239 93.6525C203.572 92.8623 201.102 94.5909 200.263 97.0109C198.534 102.049 196.46 115.383 191.175 116.174C187.422 116.717 182.681 112.815 179.125 112.025C178.927 111.976 178.729 111.926 178.581 111.877C178.878 110.741 179.075 109.605 179.273 108.42C180.162 102.049 179.668 93.5043 174.63 88.763C169.84 84.2687 160.851 82.0956 154.48 84.2193C153.838 84.2687 153.146 84.5156 152.455 85.0095C146.775 88.8618 144.651 98.8383 136.947 97.3072C129.736 95.8256 122.18 92.3684 115.018 89.4545C120.747 74.391 127.464 59.5745 133.687 44.7086C137.49 35.5717 141.342 26.4349 144.997 17.1993C145.59 15.8164 146.676 13.7421 147.615 11.569C170.926 20.3107 194.139 29.25 217.154 38.6338C215.672 46.6347 213.795 54.5369 211.573 62.3896C210.881 64.8097 212.412 67.8223 214.981 68.3656C224.512 70.4399 235.674 78.2433 230.884 89.5039ZM177.198 111.531C176.951 111.432 177.001 111.432 177.198 111.531V111.531ZM222.191 60.3647C224.216 52.6107 225.945 44.8568 227.328 36.9546C227.821 34.0901 226.587 32.0652 223.92 30.9786C197.991 20.3601 171.815 10.2849 145.54 0.456597C142.231 -0.778113 138.33 3.07418 139.564 6.43259C139.367 5.93871 139.318 5.49421 139.268 5.19788C139.219 5.39544 139.169 5.59299 139.071 5.83993C138.675 6.87709 138.28 7.91424 137.885 8.9514C136.651 12.2604 135.317 15.5201 133.984 18.7797C130.279 27.8672 126.526 36.9052 122.772 45.8939C116.5 60.8586 109.684 75.7245 104.153 90.9855C103.215 93.5537 105.24 96.1219 107.511 96.9121C114.031 99.2334 120.599 101.505 127.069 103.876C131.415 105.456 136.107 108.123 140.799 108.271C151.516 108.716 150.331 98.4432 157.147 93.5537C164.654 91.0843 169.988 97.0603 169.889 104.123C169.889 107.531 167.864 111.037 168.407 114.396C169.494 120.767 178.878 122.545 184.113 124.273C200.362 129.558 204.115 116.816 208.116 104.172C220.957 107.136 236.02 106.543 240.514 91.4794C244.91 76.9098 235.082 65.0072 222.191 60.3647Z" fill="black"/>
<path d="M58.169 224.087C54.5637 224.827 50.9583 225.519 47.4023 226.309C42.019 227.445 42.1672 228.433 41.4263 223.198C40.6855 217.468 39.3026 211.789 38.2655 206.109C37.6234 202.405 37.0308 198.059 33.7218 195.688C30.2646 193.169 26.9556 194.602 23.1033 194.799C18.2138 194.997 10.9537 194.947 10.1635 188.675C9.07696 180.477 17.6705 173.414 25.2763 174.698C28.9311 175.34 32.0919 172.574 31.2523 168.772C30.067 163.536 28.7335 158.4 27.5482 153.214C26.4617 148.424 25.3751 149.214 29.2768 148.028C36.1912 146.003 44.4884 146.646 51.0077 143.386C56.4404 140.62 55.1069 136.126 55.2551 130.891C55.4526 125.359 56.1441 122.297 60.6878 119.037C64.145 116.568 67.3059 115.136 71.3557 118C75.6525 121.013 76.097 129.014 77.2329 133.607C77.6774 135.484 79.8505 137.41 81.9248 137.163C83.8016 136.916 85.382 136.718 87.2588 136.274C93.7286 134.496 100.149 132.52 106.52 130.397C108.743 136.669 111.113 142.892 113.089 149.214C113.336 150.103 113.632 150.992 113.879 151.831C113.879 151.831 113.83 151.831 113.78 151.881C111.262 151.979 108.94 152.819 106.52 153.708C97.5316 156.968 93.4323 163.042 95.1115 172.97C96.8401 182.946 104.347 188.626 114.422 186.65C115.706 186.403 122.176 183.242 123.856 183.341C122.868 183.539 125.387 189.762 125.683 190.799C127.658 196.972 129.683 203.195 131.659 209.418C115.41 212.135 99.3095 215.542 83.1595 218.95C74.8623 220.728 66.5156 222.407 58.169 224.087ZM135.956 191.046C134.672 186.946 133.733 181.415 131.412 177.711C129.93 175.34 127.807 173.612 124.843 173.463C118.571 173.068 104.495 182.65 104.545 169.759C104.594 157.412 121.04 166.154 124.053 156.474C125.14 152.819 123.016 148.325 121.929 144.917C119.559 137.558 116.645 130.397 114.175 123.038C113.385 120.618 110.817 118.79 108.249 119.63C100.692 122.149 93.1854 124.569 85.5302 126.643C82.9126 116.519 79.4554 107.777 66.812 106.789C54.4649 105.801 46.5134 116.222 45.6737 127.829C45.5256 129.903 45.5256 131.928 45.6244 134.002C46.2664 136.076 45.9701 136.422 44.6366 135.138C42.2659 136.768 36.2406 136.965 33.376 137.509C29.425 138.299 24.5355 138.299 20.9302 140.126C13.0774 144.077 17.226 156.622 20.14 165.512C7.10142 167.981 -4.55423 181.366 1.91564 195.194C4.87895 201.368 12.386 204.183 18.9052 204.628C21.9179 204.874 26.7086 203.245 28.3878 205.615C30.1658 208.085 30.4127 216.431 30.956 219.246C31.8944 224.383 31.2523 232.483 36.1418 235.841C42.6117 240.286 55.6996 234.458 62.5152 233.125C88.0984 227.939 113.484 221.913 139.265 217.913C141.784 217.518 143.364 214.209 142.623 211.937C140.401 204.973 138.178 198.009 135.956 191.046Z" fill="black"/>
</svg>
