<svg width="182" height="179" viewBox="0 0 182 179" fill="none" xmlns="http://www.w3.org/2000/svg">
<path d="M65.2113 45.6826C63.7317 49.1555 61.574 52.4228 58.7177 55.2792C55.8818 58.115 52.5939 60.2727 49.1211 61.7728C49.4499 62.2454 49.8198 62.7386 50.2924 63.2112L119.955 132.853C121.455 129.319 123.633 125.969 126.531 123.092C129.408 120.174 132.757 117.996 136.292 116.516L66.6497 46.8539C66.1771 46.3813 65.7044 46.0114 65.2113 45.6826Z" fill="#64CDF5"/>
<path d="M65.2113 45.6826C63.7317 49.1555 61.574 52.4228 58.7177 55.2792C55.8818 58.115 52.5939 60.2727 49.1211 61.7728C49.4499 62.2454 49.8198 62.7386 50.2924 63.2112L119.955 132.853C121.455 129.319 123.633 125.969 126.531 123.092C129.408 120.174 132.757 117.996 136.292 116.516L66.6497 46.8539C66.1771 46.3813 65.7044 46.0114 65.2113 45.6826Z" fill="#E61500" stroke="#4B4B4D" stroke-width="5.175"/>
<path d="M121.187 113.248C122.42 114.481 122.42 116.494 121.187 117.727C119.954 118.981 117.94 118.981 116.687 117.727L64.1007 65.1415C62.8883 63.9086 62.8883 61.8947 64.1007 60.6618C65.3337 59.4288 67.3475 59.4288 68.601 60.6618L121.187 113.248Z" fill="#FEFEFE"/>
<path d="M25.7817 5.05573L45.6735 24.9475L28.3915 42.2296L8.52024 22.3378C4.16377 33.3522 6.44475 46.36 15.3426 55.2784C27.3435 67.2382 46.7421 67.2382 58.7224 55.2784C70.7027 43.2981 70.7027 23.879 58.7224 11.8987C49.8245 3.0008 36.7962 0.719815 25.7817 5.05573Z" stroke="#4B4B4D" stroke-width="5.175"/>
<path d="M50.4409 17.7356C59.01 26.6951 58.6813 40.9153 49.7012 49.4638" stroke="#4B4B4D" stroke-width="5.175"/>
<path d="M159.448 173.294L139.556 153.423L156.839 136.141L176.73 156.032C181.087 144.997 178.806 131.99 169.887 123.092C157.928 111.111 138.508 111.111 126.528 123.092C114.548 135.051 114.548 154.471 126.528 166.451C135.426 175.349 148.454 177.63 159.448 173.294Z" stroke="#4B4B4D" stroke-width="5.175"/>
<path d="M133.766 160.037C125.197 151.078 125.526 136.858 134.506 128.309" stroke="#4B4B4D" stroke-width="5.175"/>
<path d="M80.6029 96.7053L95.2135 111.316L86.3362 120.214L81.4043 115.282L25.6128 171.094C25.6128 171.094 18.0301 178.656 8.33075 168.977C-1.34801 159.278 6.21416 151.716 6.21416 151.716L62.0263 95.9039L57.0944 90.9926L65.9923 82.0947L80.6029 96.7053Z" fill="#E61500"/>
<path d="M73.0407 110.473L22.2016 161.313M66.7937 104.309L15.9546 155.168M80.6029 96.7053L95.2135 111.316L86.3362 120.214L81.4043 115.282L25.6128 171.094C25.6128 171.094 18.0301 178.656 8.33075 168.977C-1.34801 159.278 6.21416 151.716 6.21416 151.716L62.0263 95.9039L57.0944 90.9926L65.9923 82.0947L80.6029 96.7053Z" stroke="#4B4B4D" stroke-width="5.175"/>
<path d="M170.37 18.6603L164.062 12.3516L157.753 6.04297C157.753 6.04297 145.958 16.03 146.163 24.373L78.5352 92.001L84.4123 97.8782L152.04 30.2707C160.383 30.4556 170.37 18.6603 170.37 18.6603Z" fill="#FEFEFE"/>
<path d="M170.37 18.6603L164.062 12.3516L157.753 6.04297C157.753 6.04297 145.958 16.03 146.163 24.373L78.5352 92.001L84.4123 97.8782L152.04 30.2707C160.383 30.4556 170.37 18.6603 170.37 18.6603Z" stroke="#4B4B4D" stroke-width="5.175"/>
</svg>
