<svg width="128" height="192" viewBox="0 0 128 192" fill="none" xmlns="http://www.w3.org/2000/svg">
<path fill-rule="evenodd" clip-rule="evenodd" d="M32.3251 191.202C49.8536 191.202 64.0776 176.978 64.0776 159.428V127.676H32.3251C14.7748 127.676 0.550781 141.9 0.550781 159.428C0.550781 176.978 14.7748 191.202 32.3251 191.202Z" fill="#0ACF83"/>
<path fill-rule="evenodd" clip-rule="evenodd" d="M0.550781 95.9012C0.550781 78.3727 14.7748 64.1487 32.3251 64.1487H64.0776V127.676H32.3251C14.7748 127.676 0.550781 113.43 0.550781 95.9012Z" fill="#A259FF"/>
<path fill-rule="evenodd" clip-rule="evenodd" d="M0.550781 32.3742C0.550781 14.8458 14.7748 0.599854 32.3251 0.599854H64.0776V64.1486H32.3251C14.7748 64.1486 0.550781 49.9026 0.550781 32.3742Z" fill="#F24E1E"/>
<path fill-rule="evenodd" clip-rule="evenodd" d="M64.0801 0.599731H95.8544C113.383 0.599731 127.607 14.8457 127.607 32.3741C127.607 49.9025 113.383 64.1484 95.8544 64.1484H64.0801V0.599731Z" fill="#FF7262"/>
<path fill-rule="evenodd" clip-rule="evenodd" d="M127.607 95.9009C127.607 113.429 113.383 127.675 95.8544 127.675C78.326 127.675 64.0801 113.429 64.0801 95.9009C64.0801 78.3725 78.326 64.1484 95.8544 64.1484C113.383 64.1484 127.607 78.3725 127.607 95.9009Z" fill="#1ABCFE"/>
</svg>
