<svg width="103" height="42" viewBox="0 0 103 42" fill="none" xmlns="http://www.w3.org/2000/svg">
<path d="M12.4504 0L8.99664 19.659L8.15909 24.7219L7.32624 19.9554L3.81134 0L3.39727 0.0611696H0V41.9388H3.81134V22.1622L6.19695 35.803H10.0648L12.5068 21.8658V42H16.3229V0.0611696H12.9256L12.4504 0ZM36.5136 0.122339H29.4273H26.4488V42H30.2601H36.5136V38.184H30.2601V22.8163H35.3231V19.0049H30.2601V3.93368H36.5136V0.122339ZM56.2902 0.122339H46.6442V42H50.4555V23.1127H54.6856V42H58.5534V22.9951L56.5913 21.0894L58.5534 19.1226V2.32445L56.2902 0.122339ZM54.6856 3.93368V19.1837H50.4555V3.93368H54.6856ZM70.9473 0.122339L68.6841 2.32445V39.7932L70.9473 42H78.2124L80.4757 39.7932V22.8774H74.4011V26.6888H76.6032V38.184H72.4954V3.93368H76.6032V12.0363H80.4757V2.32445L78.2124 0.122339H70.9473ZM102.398 0.122339H98.5254V38.184H94.4177V0.122339H90.6016V39.7932L92.8696 42H100.135L102.398 39.7932V0.122339Z" fill="white"/>
</svg>
