<svg width="1142" height="1197" viewBox="0 0 1142 1197" fill="none" xmlns="http://www.w3.org/2000/svg">
<path fill-rule="evenodd" clip-rule="evenodd" d="M579.686 946.429C568.99 933.843 570.161 910.221 547.862 871.103C540.53 858.215 538.451 859.425 531.535 849.938C547.295 834.404 563.056 819.21 578.892 802.656C590.609 790.373 616.385 762.744 628.593 754.278C649.456 781.717 641.783 833.043 630.785 864.565C620.354 894.574 594.691 929.27 579.686 946.429ZM341.954 780.092C351.554 785.384 407.226 838.562 414.369 853.642C381.185 851.223 342.672 813.541 341.954 780.092ZM336.813 697.358C357.147 703.708 367.314 718.221 382.697 732.962C408.813 758.02 444.492 783.456 467.396 804.81L509.311 842.606C503.869 856.363 501.563 859.273 482.174 859.954C436.442 861.579 444.341 855.267 399.629 810.593C330.917 741.957 334.81 760.25 336.813 697.358ZM356.165 682.769L380.391 658.316C408.7 681.409 435.346 703.821 463.881 730.165C489.884 754.165 519.402 774.499 549.601 803.45L524.807 828.735C501.979 805.264 390.558 719.393 356.165 682.769ZM395.396 643.613L419.85 618.593L525.072 708.092C537.166 719.544 580.328 750.839 588.794 764.294L564.417 788.936C550.886 780.659 530.703 762.895 519.629 752.691L435.081 680.426C421.286 669.314 409.229 654.839 395.396 643.613ZM472.045 566.776L630.369 722.908C621.865 731.336 612.606 740.521 604.555 749.629L435.081 602.946C439.73 600.073 466.035 573.163 472.045 566.776ZM344.826 664.401L334.772 656.917C297.317 624.451 279.743 633.825 250.187 617.535C281.859 573.465 372.19 537.106 442.376 565.755C437.84 574.562 355.976 656.426 344.826 664.401ZM644.883 707.903L486.483 551.393L511.276 527.733C509.689 499.689 457.078 408.943 503.264 286.562C578.628 86.8512 805.059 21.6921 958.999 114.366C1273.46 303.645 1094.65 762.895 746.136 705.484C727.881 702.499 705.809 695.695 690.275 689.384C661.248 677.554 661.021 696.073 644.883 707.903ZM459.572 551.809C412.744 539.714 386.703 520.779 313.985 550.788C294.898 558.688 272.335 572.445 258.35 583.179C250.035 589.528 242.854 596.218 235.031 602.417C172.48 651.853 296.221 624.489 328.498 679.519C322.376 691.613 311.302 697.207 317.198 744.413C319.201 760.703 322.716 752.199 324.946 764.823C327.591 779.79 318.029 786.971 328.99 809.421C333.828 819.362 346.678 835.311 352.498 841.434C394.224 885.125 414.407 869.138 429.941 870.272C448.876 871.632 420.076 878.398 475.333 878.511C515.132 878.587 497.481 874.165 517.702 867.097C556.442 907.425 545.368 925.717 565.059 977.157C588.492 976.779 591.629 962.417 611.585 936.451C639.402 900.168 659.963 860.294 660.228 809.95C660.417 776.313 651.799 764.71 644.618 738.215L674.854 706.391C714.086 709.982 793.191 758.813 926.42 706.769C988.026 682.732 1057.27 626.984 1090.6 570.744C1154.74 462.536 1159.88 335.242 1094.46 220.193C1061.88 162.933 998.533 107.072 936.058 81.7488C854.609 48.7535 764.694 44.1425 682.035 77.2512C649.116 90.4417 606.369 114.593 587.094 132.357C496.876 215.506 448.045 319.33 471.894 454.599C475.938 477.503 484.744 494.965 488.637 512.88C491.887 527.695 467.698 540.81 459.572 551.809Z" fill="#1C1D1E"/>
<path fill-rule="evenodd" clip-rule="evenodd" d="M114.014 1082.49C101.277 1033.58 196.672 878.889 240.25 855.418C271.015 838.864 306.694 850.618 325.176 868.722C346.53 889.623 357.453 922.013 339.425 957.957C322.152 992.502 177.434 1089.18 114.014 1082.49ZM252.345 830.662C209.371 840.262 197.504 866.19 177.132 893.478C158.272 918.725 140.962 946.883 124.521 977.913C82.1901 1057.77 68.4704 1144.44 192.288 1084.72C236.735 1063.29 330.997 1009.7 353.258 971.639C396.004 898.694 335.192 812.105 252.345 830.662Z" fill="#1C1D1E"/>
<path fill-rule="evenodd" clip-rule="evenodd" d="M880.084 1021.98C874.226 977.458 903.782 942.195 941.653 936.11C986.062 928.967 1022.46 962.718 1027.56 999.077C1041.47 1098.44 892.254 1114.31 880.084 1021.98ZM931.675 919.291C887.832 928.173 847.694 975.682 862.585 1032.68C874.037 1076.52 918.749 1113.9 975.366 1101.39C1086.37 1076.9 1062.3 892.835 931.675 919.291Z" fill="#1C1D1E"/>
<path fill-rule="evenodd" clip-rule="evenodd" d="M224.488 371.902C243.612 352.4 259.108 339.436 278.081 318.8C282.428 352.589 258.201 374.964 224.488 371.902ZM202.151 361.811C160.538 309.275 210.919 256.702 267.801 292.834C265.004 307.121 262.85 306.441 252.834 316.872C246.409 323.562 243.99 327.304 237.262 333.842C228.003 342.913 214.396 354.101 202.151 361.811ZM181.59 365.931C173.162 374.359 169.382 372.129 171.347 386.869C184.651 391.14 184.614 388.683 199.127 387.398C212.96 386.189 249.319 403.65 279.404 372.734C309.565 341.817 293.124 307.386 293.54 294.989C294.031 280.967 297.621 279.379 292.217 265.773C280.954 264.223 290.818 262.56 281.332 266.756C280.349 267.171 278.308 268.683 277.477 269.364L274.453 272.916C274.113 273.257 273.621 274.277 273.055 274.844C248.072 256.853 205.93 259.537 185.483 278.812C164.393 298.731 158.913 339.852 181.59 365.931Z" fill="#1C1D1E"/>
<path fill-rule="evenodd" clip-rule="evenodd" d="M177.698 1018.16C190.246 990.423 229.251 946.505 250.605 921.295C261.679 908.18 263.909 900.13 287.493 907.009C296.564 927.343 291.084 933.201 276.608 944.048C265.534 952.363 256.388 962.757 244.936 970.958C224.904 985.321 201.169 1007.35 177.698 1018.16ZM153.736 1043.45C176.564 1046.85 191.644 1033.13 208.161 1022.36L297.622 951.91C336.287 918.045 286.397 857.043 245.805 896.88C221.767 920.464 147.915 1004.97 153.736 1043.45Z" fill="#1C1D1E"/>
<path fill-rule="evenodd" clip-rule="evenodd" d="M647.076 221.288C660.493 222.309 667.372 209.156 678.597 201.143C685.325 196.305 704.412 184.853 715.599 179.486C744.399 165.691 778.793 158.397 814.623 160.173C847.089 161.836 879.857 171.323 903.933 185.647C917.237 193.584 927.706 202.164 937.306 210.97C959.378 231.228 968.865 219.436 961.722 206.812C955.561 195.965 913.419 167.581 893.993 159.606C863.832 147.285 831.441 139.197 794.856 140.633C761.029 141.956 731.019 150.686 703.693 164.255C684.909 173.59 642.881 197.477 644.015 212.671C644.582 220.154 644.43 217.282 647.076 221.288Z" fill="#1C1D1E"/>
<path fill-rule="evenodd" clip-rule="evenodd" d="M692.053 396.773C693.527 386.341 664.198 342.31 707.889 338.832C738.617 336.376 746.818 366.725 726.068 388.798L652.783 462.347C643.486 471.456 635.057 475.689 636.683 492.13C656.336 494.662 679.089 463.67 702.484 440.313C715.713 427.084 755.965 395.034 757.552 369.749C761.483 306.669 664.273 298.694 664.198 366.385C664.198 374.851 665.823 382.335 670.169 389.932C672.324 393.673 674.402 397.453 678.673 398.965C678.749 398.965 681.432 403.462 692.053 396.773Z" fill="#1C1D1E"/>
<path fill-rule="evenodd" clip-rule="evenodd" d="M544.386 584.086C561.431 589.491 573.979 568.779 598.017 544.59C627.875 514.58 615.554 521.988 668.43 526.184C677.727 581.667 682.112 568.212 628.745 620.936C611.775 637.68 603.384 640.401 613.211 649.396C623.113 658.505 657.96 615.985 673.57 600.527C684.833 589.339 695 587.336 692.468 563.752C686.194 505.434 694.849 510.083 652.216 505.321C638.194 503.733 625.079 501.768 610.754 502.372C588.077 537.106 539.623 559.935 544.386 584.086Z" fill="#1C1D1E"/>
<path fill-rule="evenodd" clip-rule="evenodd" d="M54.3306 536.008C48.0187 548.254 49.0014 535.404 36.2266 549.048C37.9274 557.174 36.6046 554.037 41.7447 558.156C46.8093 562.163 42.614 558.459 47.8676 561.445C53.4613 564.695 49.8329 561.029 54.3306 565.337C54.3306 577.394 50.6644 597.123 64.5353 597.312C78.1794 597.539 72.9636 577.319 74.6266 562.087C89.4046 557.363 89.1022 566.245 90.992 552.147C92.655 540.015 84.6802 542.207 74.4754 541.64C72.2455 525.388 78.6329 504.752 64.2707 504.789C51.1935 504.789 54.3306 524.67 54.3306 536.008Z" fill="#1C1D1E"/>
<path fill-rule="evenodd" clip-rule="evenodd" d="M391.807 105.445C382.282 118.824 376.462 103.819 373.854 119.278C371.473 133.413 381.526 127.328 391.353 131.561C391.882 147.435 388.972 156.015 396.569 166.862C415.58 164.254 410.44 154.843 410.44 134.811C418.641 120.941 418.339 139.347 428.884 121.772C420.191 90.4778 411.725 143.504 409.382 74.2637C386.893 72.4495 391.807 82.6542 391.807 105.445Z" fill="#1C1D1E"/>
<path fill-rule="evenodd" clip-rule="evenodd" d="M391.805 1097C385.456 1108.19 400.914 1090.58 381.563 1104.34C372.719 1110.61 380.467 1094.81 372.945 1113.29C381.789 1130.15 372.643 1114.88 384.095 1123.12C391.994 1128.79 390.18 1122.86 391.805 1129.62C391.805 1149.12 387.156 1158.72 407.037 1158.88C416.032 1095.46 414.936 1138.16 428.958 1113.29C417.393 1087.44 412.29 1129.21 408.737 1067.26C386.892 1067.56 391.805 1076.14 391.805 1097Z" fill="#1C1D1E"/>
<path fill-rule="evenodd" clip-rule="evenodd" d="M709.514 1025.19C698.705 1032.3 700.519 1024.74 691.297 1034.6C693.565 1052.37 691.297 1041.41 698.629 1046.28C708.909 1053.16 708.683 1033.02 711.895 1083.59C735.102 1084.19 728.298 1072.4 729.432 1047.49C743.87 1046.96 741.867 1049.19 747.423 1038.27C743.228 1029.09 739.108 1029.54 736.462 1028.18C735.744 1027.8 734.724 1027.46 734.043 1027.16L729.092 1025.23C729.092 1003.5 735.517 991.744 712.576 992.235L709.514 1025.19Z" fill="#1C1D1E"/>
<path fill-rule="evenodd" clip-rule="evenodd" d="M973.514 975.153C985.192 969.408 992.26 975.228 988.443 987.36C978.691 991.934 987.649 991.178 974.194 988.835L973.514 975.153ZM972.266 956.482C933.866 974.586 959.907 1022.4 995.284 1007.2C1023.93 994.92 1005.75 940.646 972.266 956.482Z" fill="#1C1D1E"/>
<path fill-rule="evenodd" clip-rule="evenodd" d="M756.077 464.727C756.152 464.576 767.982 462.686 751.201 445.981C747.875 442.693 738.993 431.921 732.379 437.704C720.889 447.757 740.203 472.551 756.077 464.727Z" fill="#1C1D1E"/>
<path fill-rule="evenodd" clip-rule="evenodd" d="M601.228 1176.49C635.244 1187.6 599.981 1139.18 598.318 1168.44C597.449 1183.37 598.81 1172.07 601.228 1176.49Z" fill="#1C1D1E"/>
<path fill-rule="evenodd" clip-rule="evenodd" d="M1087.77 780.962C1088.11 781.188 1089.36 789.465 1099.94 782.813C1103.45 780.584 1105.95 775.406 1101.56 770.643C1093.02 761.421 1082.06 767.355 1087.77 780.962Z" fill="#1C1D1E"/>
<path fill-rule="evenodd" clip-rule="evenodd" d="M770.287 824.691C768.435 828.961 763.899 829.491 769.644 837.919C772.441 842.001 777.581 842.568 781.55 838.864C791.452 829.491 782.873 821.554 770.287 824.691Z" fill="#1C1D1E"/>
<path fill-rule="evenodd" clip-rule="evenodd" d="M139.333 785.193C150.407 780.544 149.613 779.485 145.72 768.034L132.87 767.354C129.204 779.638 128.448 780.468 139.333 785.193Z" fill="#1C1D1E"/>
<path fill-rule="evenodd" clip-rule="evenodd" d="M938.701 1048.63C936.055 1055.43 935.375 1073.16 948.906 1064.92C957.259 1059.89 956.729 1047.87 938.701 1048.63Z" fill="#1C1D1E"/>
<path fill-rule="evenodd" clip-rule="evenodd" d="M0.133694 238.41C5.91637 241.094 23.6802 241.51 16.3857 228.357C10.9053 218.454 -1.41591 223.141 0.133694 238.41Z" fill="#1C1D1E"/>
<path fill-rule="evenodd" clip-rule="evenodd" d="M169.229 1.88649C165.147 22.4093 187.749 24.4881 184.461 1.47074C180.568 0.450265 182.458 -0.23005 178.036 0.0723122C164.429 0.941604 172.82 0.677037 169.229 1.88649Z" fill="#1C1D1E"/>
<path fill-rule="evenodd" clip-rule="evenodd" d="M1052.54 1181.1C1042.72 1188.54 1052.17 1200.07 1060.52 1195.91C1071.93 1190.25 1062.6 1173.43 1052.54 1181.1Z" fill="#1C1D1E"/>
<path fill-rule="evenodd" clip-rule="evenodd" d="M900.53 993.749C896.713 1005.62 896.675 996.659 900.946 1007.47C901.815 1007.81 903.1 1007.54 903.516 1008.49C903.969 1009.36 905.557 1009.09 906.124 1009.05C913.721 1008.45 911.831 1007.92 913.947 1007.05L915.648 994.316C910.735 993.484 910.017 990.801 900.53 993.749Z" fill="#1C1D1E"/>
<path fill-rule="evenodd" clip-rule="evenodd" d="M973.516 975.152L974.196 988.834C987.651 991.177 978.694 991.933 988.445 987.36C992.262 975.227 985.194 969.407 973.516 975.152Z" fill="#1C1D1E"/>
<path fill-rule="evenodd" clip-rule="evenodd" d="M526.583 37.377L525.902 51.5502C537.316 56.577 527.754 55.7833 539.66 52.1928C542.154 43.8778 541.285 44.4447 538.753 38.5487L526.583 37.377Z" fill="#1C1D1E"/>
</svg>
