<svg width="366" height="494" viewBox="0 0 366 494" fill="none" xmlns="http://www.w3.org/2000/svg">
<path d="M156.838 273.978C149.259 276.129 142.09 274.9 135.434 270.291C135.126 254.315 141.169 252.676 153.356 265.273C155.097 267.936 156.223 270.803 156.838 273.978ZM245.527 265.068C249.624 258.924 251.877 258.924 252.389 264.966C250.238 264.556 247.985 264.659 245.527 265.068ZM262.016 349.969C253.516 356.728 246.244 363.897 240.816 372.295C240.509 371.27 240.1 370.349 239.69 369.325C239.587 368.096 239.178 366.969 238.666 365.945C230.678 340.649 228.937 313.1 235.696 287.497C238.359 287.599 240.919 287.599 243.479 287.292C260.275 285.756 295.3 268.653 277.583 246.839C268.98 236.188 252.082 237.622 241.226 243.766C232.521 248.682 226.581 256.466 222.382 265.171C219.822 264.351 217.364 263.225 215.008 261.996C215.316 261.586 215.725 261.177 216.033 260.869C229.961 245.405 252.696 208.946 219.924 199.422C195.652 192.253 174.76 216.525 176.911 239.363C177.73 247.658 180.7 255.134 185.001 261.484C181.827 263.532 178.857 265.273 176.399 266.605C176.092 266.707 175.784 266.912 175.477 267.014C169.332 244.381 144.139 227.176 122.632 243.357C101.023 259.64 116.897 289.34 139.325 294.154C144.753 295.28 150.283 295.485 155.814 294.87C153.766 304.6 150.181 314.329 148.338 321.908C144.856 335.733 141.783 349.764 138.404 363.692C133.283 358.776 126.933 354.168 118.945 349.661C81.0524 328.257 48.1779 297.226 31.587 256.056C-3.54061 169.005 52.4792 80.5204 129.084 39.5553C173.838 17.3317 227.605 11.699 271.54 39.1456C308.307 62.0861 332.271 102.744 341.283 144.426C358.796 224.513 323.976 300.196 262.016 349.969ZM197.086 473.069C188.483 473.274 176.808 474.093 168.411 470.406C189.508 469.792 212.551 467.436 231.804 459.346C227.605 472.659 210.195 472.864 197.086 473.069ZM156.121 450.538C155.711 447.875 155.609 445.008 155.507 442.243H155.609C181.929 443.472 207.327 439.58 231.907 430.67C232.111 432.718 232.214 434.664 232.316 436.712C210.707 449.207 180.7 450.436 156.121 450.538ZM224.533 385.711C201.695 392.368 178.549 395.03 154.585 393.699C154.278 392.368 153.97 391.036 153.663 389.705C177.218 390.626 200.466 388.271 223.406 382.741C223.816 383.765 224.123 384.789 224.533 385.711ZM156.428 413.977C181.827 415.103 206.611 412.031 230.882 404.862C230.882 406.398 230.78 408.037 230.78 409.675C206.815 418.995 182.134 423.194 156.223 422.067C156.428 419.917 156.428 417.971 156.428 416.127C156.428 415.41 156.428 414.694 156.428 413.977ZM200.671 248.58C196.062 241.513 195.652 234.037 199.339 225.947C212.346 224.308 216.647 226.356 212.243 232.091C211.117 237.827 206.611 243.664 201.08 249.092C200.978 248.887 200.773 248.682 200.671 248.58ZM176.604 289.238C184.797 285.756 192.58 281.045 199.544 275.822C204.562 279.304 210.195 281.966 216.033 284.015C209.478 310.437 210.4 337.679 217.159 363.59C197.598 368.198 177.73 370.144 157.657 369.734C161.344 354.372 164.826 338.806 168.718 323.444C171.483 312.383 175.272 300.81 176.604 289.238ZM361.868 144.528C352.651 95.6775 324.385 48.4652 281.782 21.7355C231.599 -9.60287 169.947 -3.15086 118.945 22.1451C44.491 61.9837 -11.6312 142.275 3.21864 229.326C11.3093 277.153 40.8042 317.197 77.98 347.203C93.0347 359.391 117.409 366.047 129.391 381.102C131.03 383.048 132.361 385.301 133.385 387.657C133.59 388.578 133.897 389.398 134.307 390.114C140.349 406.91 135.331 430.363 136.458 446.544C137.379 460.574 140.145 476.141 152.229 484.846C169.537 497.341 200.671 494.473 220.334 490.991C280.348 480.238 232.009 411.007 262.221 376.494C277.685 358.776 298.987 347.306 314.246 328.974C328.584 311.666 340.055 292.413 348.555 271.623C364.941 231.579 369.857 187.132 361.868 144.528Z" fill="#E61500"/>
<path d="M98.366 73.6535C59.1418 118.101 15.7188 174.018 40.1955 236.49C44.804 248.37 64.2625 243.249 59.5515 231.164C37.84 175.657 77.9858 127.011 112.601 87.8889C121.204 78.262 106.969 64.0267 98.366 73.6535Z" fill="#E61500"/>
<path d="M80.5444 266.503C80.442 266.4 79.6227 265.479 79.1106 264.864C79.0082 264.659 78.9058 264.557 78.7009 264.25C78.2913 263.738 77.984 263.225 77.5744 262.713C74.6044 258.412 68.6645 255.954 63.8511 259.129C59.5497 261.894 56.9894 268.244 60.2666 272.852C63.4414 277.461 66.9235 281.66 71.02 285.449C74.9117 289.034 81.4661 289.546 85.2554 285.449C88.8398 281.557 89.3519 275.003 85.2554 271.214C83.6168 269.678 82.0806 268.141 80.5444 266.503Z" fill="#E61500"/>
</svg>
