<svg width="99" height="42" viewBox="0 0 99 42" fill="none" xmlns="http://www.w3.org/2000/svg">
<path d="M0 0V41.7183H5.58467L4.68966 21.6994L7.64866 41.7183H11.8406L14.8087 21.6994L13.9046 41.7183H19.4664V0H13.2105L9.74463 26.0694L6.25592 0H0Z" fill="white"/>
<path d="M26.2305 0V41.7183H37.3724V37.5584H31.8106V20.8546H36.6783L35.281 16.6946H31.8106V4.18736H37.3724V0H26.2305Z" fill="white"/>
<path d="M43.957 0V41.7183H49.5417V25.0465C50.2951 25.0465 50.8522 25.663 50.9116 26.4164L52.3135 41.7183H57.8616L56.4643 26.4164C56.4141 25.4803 56.204 24.5808 55.7976 23.7953C57.0762 22.7816 57.8616 21.2336 57.8616 19.4619V5.5801C57.8616 2.50237 55.3912 0 52.3135 0H43.957ZM49.5417 4.18736H50.9116C51.697 4.18736 52.3135 4.79469 52.3135 5.5801V19.4619C52.3135 20.2473 51.697 20.8546 50.9116 20.8546H49.5417V4.18736Z" fill="white"/>
<path d="M70.209 0C67.1586 0 64.6562 2.50237 64.6562 5.5801V36.1565C64.6562 39.2479 67.1586 41.7183 70.209 41.7183H73.0081C76.0859 41.7183 78.5608 39.2479 78.5608 36.1565V20.8546H73.0081L71.2592 25.0465H73.0081V36.1565C73.0081 36.9236 72.3917 37.5584 71.6063 37.5584C70.8528 37.5584 70.209 36.9236 70.209 36.1565V5.5801C70.209 4.79469 70.8528 4.18736 71.6063 4.18736C72.3917 4.18736 73.0081 4.79469 73.0081 5.5801V13.6443L78.5608 10.0871V5.5801C78.5608 2.50237 76.0859 0 73.0081 0H70.209Z" fill="white"/>
<path d="M85.0859 0V36.1565C85.0859 39.2479 87.5883 41.7183 90.6752 41.7183H93.4378C96.5247 41.7183 98.9997 39.2479 98.9997 36.1565V0H93.4378V36.1565C93.4378 36.9236 92.8305 37.5584 92.0359 37.5584C91.2825 37.5584 90.6752 36.9236 90.6752 36.1565V0H85.0859Z" fill="white"/>
</svg>
