<svg width="408" height="335" viewBox="0 0 408 335" fill="none" xmlns="http://www.w3.org/2000/svg">
<path d="M389.488 298.065C387.691 298.873 384.008 299.053 382.121 299.323C369.543 301.299 356.875 302.377 344.207 303.994C288.595 310.822 232.802 315.404 176.74 316.752C150.147 317.381 123.643 317.381 97.0494 316.752C84.112 316.483 71.1746 316.123 58.2372 316.033C46.3779 315.943 30.4757 317.561 18.0774 314.596C16.5501 303.455 18.4368 290.338 18.4368 279.557C18.5266 267.788 18.5266 256.108 18.6165 244.339C18.7961 219.811 19.0657 195.195 19.2454 170.667C28.589 179.921 38.1124 189.355 48.5342 196.722C61.8309 206.066 76.2957 204.898 91.8385 204.358C105.135 203.819 118.342 203.37 131.639 202.831C131.729 205.886 131.819 209.03 131.998 212.085C132.537 223.405 150.236 223.495 149.608 212.085C149.428 208.761 149.338 205.437 149.248 202.112C172.697 201.214 196.146 200.226 219.685 199.148C230.287 198.698 240.978 198.339 251.759 198.069C252.298 202.921 252.837 207.773 253.556 212.624C255.083 223.854 272.064 219.093 270.536 207.952C270.087 204.448 269.638 200.944 269.278 197.441C291.919 196.722 314.649 195.554 336.84 192.409C366.129 188.277 374.484 168.96 387.961 149.195C389.578 183.156 389.938 217.206 388.859 251.257C388.41 264.374 385.625 278.838 386.883 291.955C384.367 297.705 384.996 299.862 388.77 298.155C391.555 297.526 391.824 297.436 389.488 298.065ZM19.6946 96.1876C23.0188 83.8791 38.3819 87.2033 49.5224 86.754C62.37 86.3048 75.1277 85.7658 87.9753 85.3166C135.772 83.5197 183.568 81.633 231.365 79.8361C255.892 78.9377 280.329 78.0393 304.856 77.051C316.176 76.6916 381.223 68.2464 383.02 81.7228C384.367 95.2891 385.445 108.945 386.434 122.601C378.258 131.586 372.867 141.738 366.668 151.98C355.887 169.769 343.399 174.441 323.184 176.058C304.677 177.495 286.079 178.484 267.571 179.382C267.212 175.339 266.942 171.206 266.673 167.164C266.134 155.843 248.435 155.843 249.064 167.164C249.333 171.476 249.603 175.878 249.962 180.191C239.81 180.64 229.747 180.999 219.685 181.538C196.056 182.617 172.428 183.605 148.799 184.503C148.709 179.562 148.619 174.71 148.619 169.769C148.709 158.449 131.1 158.359 131.01 169.769C131.01 174.89 131.1 180.101 131.1 185.222C126.069 185.402 121.037 185.581 116.006 185.761C100.374 186.39 76.116 191.87 61.5614 184.234C46.7373 176.507 33.7101 159.707 21.5813 148.386C20.8625 147.757 20.1438 147.308 19.425 146.949C19.5149 142.906 19.5149 138.953 19.5149 135C19.6047 123.5 16.6399 107.238 19.6946 96.1876ZM100.463 26.8288C141.072 22.9655 182.221 22.7858 223.009 21.2585C244.392 20.3601 265.864 19.5515 287.247 18.7429C292.188 18.5632 299.735 16.5867 304.227 18.114C310.426 20.2702 309.887 24.5827 310.966 31.9498C312.223 40.9341 312.852 50.0083 313.661 59.0824C310.786 59.2621 307.821 59.3519 304.856 59.4418C255.892 61.3285 206.927 63.1253 157.963 65.012C139.006 65.7308 120.049 66.4495 101.092 67.1683C100.913 53.6918 100.643 40.2154 100.463 26.8288ZM400.629 81.7228C398.922 68.6058 394.879 59.1722 380.594 56.9262C369.902 55.2192 357.594 57.4652 346.813 57.8246C341.602 58.0941 336.391 58.2738 331.27 58.4535C330.192 47.4927 329.114 36.5318 327.946 25.571C327.227 18.4734 327.317 9.57891 321.387 4.36802C315.727 -0.663186 307.731 0.41493 300.813 0.594616C286.169 0.953988 271.524 1.76258 256.79 2.30163C201.896 4.36802 146.193 4.09849 91.4791 10.0281C86.8073 10.4773 82.5847 13.6218 82.6745 18.8327C82.944 35.1842 83.2136 51.4457 83.4831 67.7972C82.6745 67.887 81.8659 67.887 80.9675 67.887C69.3777 68.3362 57.6982 68.7854 46.0186 69.2347C36.1358 69.594 23.468 67.887 14.2142 71.7503C-0.160721 77.7697 2.08535 93.8516 1.99551 106.789C1.99551 132.664 1.72598 158.539 1.5463 184.413C1.27677 210.198 1.00724 236.073 0.917395 261.948C0.827552 273.717 0.737709 285.487 0.737709 297.256C0.737709 305.252 -1.86774 318.729 2.71425 325.916C9.90169 336.787 34.0695 333.283 45.2998 333.553C69.1082 334.092 92.9166 334.451 116.725 334.811C201.986 335.799 286.438 328.971 370.981 318.459C378.707 317.471 394.52 318.1 400.629 312.08C405.57 307.139 404.133 298.334 404.582 291.955C405.391 278.389 406.019 264.823 406.469 251.257C408.265 194.655 406.199 138.054 400.629 81.7228Z" fill="#E61500"/>
<path d="M184.649 130.868C192.645 131.318 200.551 131.048 208.457 130.06C213.219 129.431 217.262 126.376 217.262 121.255C217.262 116.943 213.219 111.822 208.457 112.361C200.551 113.349 192.645 113.618 184.649 113.259C173.239 112.63 173.329 130.329 184.649 130.868Z" fill="#E61500"/>
</svg>
