<svg width="181" height="179" viewBox="0 0 181 179" fill="none" xmlns="http://www.w3.org/2000/svg">
<path d="M90.3151 112.064C77.6793 112.064 67.4346 101.819 67.4346 89.1831C67.4346 76.5474 77.6793 66.3027 90.3151 66.3027C102.951 66.3027 113.196 76.5474 113.196 89.1831C113.196 101.819 102.951 112.064 90.3151 112.064ZM162.543 98.1493L177.404 97.0369L175.228 68.345L160.55 69.4574C158.359 61.4211 154.805 53.9492 150.173 47.2744L160.268 36.7142L139.463 16.8556L129.451 27.3328C122.012 22.5841 113.66 19.1304 104.694 17.3538V2.9248H75.9359V17.3538C64.6451 19.6119 54.3008 24.4935 45.5504 31.3178L34.5917 21.8037L15.7461 43.5218L26.7878 53.1024C22.1884 61.2882 19.1167 70.4703 17.9876 80.2169L3.22656 81.3294L5.3851 110.005L20.2956 108.876C22.5703 116.796 26.1568 124.168 30.7894 130.727L20.362 141.652L41.1669 161.494L51.6607 150.502C58.9831 155.101 67.1689 158.422 75.9359 160.182V175.425H104.694V160.182C115.769 157.974 125.931 153.225 134.582 146.617L146.038 156.563L164.884 134.844L153.51 124.982C158.159 116.879 161.298 107.813 162.543 98.1493Z" fill="#FEFEFE"/>
<path d="M90.3151 112.064C77.6793 112.064 67.4346 101.819 67.4346 89.1831C67.4346 76.5474 77.6793 66.3027 90.3151 66.3027C102.951 66.3027 113.196 76.5474 113.196 89.1831C113.196 101.819 102.951 112.064 90.3151 112.064ZM162.543 98.1493L177.404 97.0369L175.228 68.345L160.55 69.4574C158.359 61.4211 154.805 53.9492 150.173 47.2744L160.268 36.7142L139.463 16.8556L129.451 27.3328C122.012 22.5841 113.66 19.1304 104.694 17.3538V2.9248H75.9359V17.3538C64.6451 19.6119 54.3008 24.4935 45.5504 31.3178L34.5917 21.8037L15.7461 43.5218L26.7878 53.1024C22.1884 61.2882 19.1167 70.4703 17.9876 80.2169L3.22656 81.3294L5.3851 110.005L20.2956 108.876C22.5703 116.796 26.1568 124.168 30.7894 130.727L20.362 141.652L41.1669 161.494L51.6607 150.502C58.9831 155.101 67.1689 158.422 75.9359 160.182V175.425H104.694V160.182C115.769 157.974 125.931 153.225 134.582 146.617L146.038 156.563L164.884 134.844L153.51 124.982C158.159 116.879 161.298 107.813 162.543 98.1493Z" stroke="#4B4B4D" stroke-width="5.175"/>
<path d="M136.088 89.184C136.088 114.472 115.599 134.962 90.3107 134.962C65.0227 134.962 44.5332 114.472 44.5332 89.184C44.5332 63.896 65.0227 43.3899 90.3107 43.3899C115.599 43.3899 136.088 63.896 136.088 89.184Z" fill="#64CDF5"/>
<path d="M136.088 89.184C136.088 114.472 115.599 134.962 90.3107 134.962C65.0227 134.962 44.5332 114.472 44.5332 89.184C44.5332 63.896 65.0227 43.3899 90.3107 43.3899C115.599 43.3899 136.088 63.896 136.088 89.184Z" fill="#E61500" stroke="#4B4B4D" stroke-width="5.175"/>
<path d="M113.196 89.1839C113.196 101.82 102.952 112.064 90.316 112.064C77.6803 112.064 67.4355 101.82 67.4355 89.1839C67.4355 76.5482 77.6803 66.3035 90.316 66.3035C102.952 66.3035 113.196 76.5482 113.196 89.1839Z" fill="#FEFEFE"/>
<path d="M113.196 89.1839C113.196 101.82 102.952 112.064 90.316 112.064C77.6803 112.064 67.4355 101.82 67.4355 89.1839C67.4355 76.5482 77.6803 66.3035 90.316 66.3035C102.952 66.3035 113.196 76.5482 113.196 89.1839Z" stroke="#4B4B4D" stroke-width="5.175"/>
<path d="M90.3184 29.3086C122.148 29.3086 150.193 54.8623 150.193 89.183" stroke="#4B4B4D" stroke-width="5.175"/>
</svg>
