<svg width="197" height="195" viewBox="0 0 197 195" fill="none" xmlns="http://www.w3.org/2000/svg">
<path fill-rule="evenodd" clip-rule="evenodd" d="M64.478 179.516L84.6528 179.373C84.3067 180.778 82.3524 186.336 81.7213 187.109C80.1944 189.003 75.3696 188.29 72.6212 188.229C69.8322 188.188 64.9666 188.901 63.4601 187.17C61.7501 185.175 63.7859 181.674 64.478 179.516ZM196.785 105.067V118.91C196.378 125.302 191.573 117.18 171.765 131.898C166.105 136.112 168.202 136.275 163.072 136.235H124.738C122.173 141.08 122.356 145.701 117.368 150.322C111.729 155.514 106.741 154.618 100.206 154.618L94.8115 169.133C85.06 196.006 87.8694 194.092 69.934 194.092C66.1881 194.092 64.0505 194.418 61.4447 193.013C55.8666 190.02 56.1923 184.666 58.167 179.638C60.1011 174.813 61.404 170.09 63.3176 165.245C64.2744 162.843 65.1498 160.379 65.9642 157.936L72.5602 139.634C73.008 138.433 73.2727 137.273 73.7816 136.235C63.5416 136.235 56.9659 138.006 52.6907 131.634C49.3317 133.893 45.7487 143.706 43.7536 147.981C39.397 157.407 34.0632 165.957 24.4745 170.864C19.5479 173.388 9.87783 175.831 3.64828 175.322C1.18496 175.118 0.676009 174.101 0.574219 172.228V169.357C0.594577 169.194 0.594577 169.011 0.574219 168.828V160.909C1.00174 156.45 5.46014 158.832 12.7687 156.857C23.5991 153.926 26.775 143.217 31.2537 133.161C32.8213 129.598 35.1625 125.486 37.4222 122.493C38.7862 120.681 39.6005 119.48 41.2902 117.933L46.054 114.268C47.9473 113.088 49.4742 112.355 51.7136 111.479C54.2583 110.502 55.7852 110.441 58.4521 109.79C61.9536 108.935 59.7957 104.313 68.5496 103.031C73.3338 102.339 91.9817 103.295 101.367 102.501C101.082 101.483 99.2292 99.1627 98.4556 98.1244C94.16 92.4242 96.5419 93.9918 90.0273 95.3761C87.9915 95.824 86.485 96.0072 84.1235 96.0072C70.7076 95.9461 62.4626 89.9812 55.378 79.904L39.0712 57.897C38.2773 56.8384 36.9133 55.3726 36.6079 54.2326C33.9614 54.9247 31.8238 59.6885 28.4443 55.8815C27.8947 55.2301 27.6707 54.8026 27.1821 54.0697C25.7978 52.0542 24.556 51.016 23.9045 48.1455C23.0698 44.5218 24.5967 41.2645 26.5307 39.188L54.8894 18.0971C58.0042 15.7559 59.9178 13.3129 62.9919 15.532C64.1116 20.7233 61.4854 19.9904 55.5205 24.8559C51.9578 27.7468 48.7616 29.6808 45.3822 32.3477L30.358 43.7685C28.4647 46.2318 30.3173 48.9802 31.722 50.222L51.8968 35.4217C55.0726 33.0806 84.8768 11.3179 85.5689 10.1575C81.6805 3.64289 77.7922 8.44738 72.5398 12.3765C70.0968 14.1883 69.5268 13.944 67.2671 12.5393C66.1067 9.85208 67.2467 8.93597 68.9568 7.63306C74.3313 3.52074 81.3345 -2.76989 87.8694 3.72432C89.5795 5.43439 93.7529 9.85208 92.2464 12.5393C91.9003 13.1501 89.0298 15.0637 88.3376 15.532C88.7448 17.2624 97.7634 28.8665 99.0052 30.5155C99.9824 31.8184 100.797 33.0399 101.754 34.3021C106.273 40.328 111.851 46.7815 114.253 53.9883C116.187 59.7292 116.187 64.5744 115.007 70.5393C113.683 77.1964 111.301 79.4358 109.021 83.7313C110.487 86.5204 112.625 88.3729 114.009 91.0195C116.065 90.4698 117.653 88.1083 123.964 87.9454C135.65 87.6197 150.491 88.0472 162.685 87.9454C167.937 87.9047 166.94 88.6987 171.48 92.1595C190.107 106.41 196.255 99.4681 196.785 105.067ZM86.8108 173.693L66.6971 173.612L80.0112 136.275L100.715 136.072C100.227 137.863 88.2766 171.006 86.8108 173.693ZM105.886 138.84C106.029 138.494 106.375 137.436 106.517 137.191C106.986 136.357 106.68 136.581 107.495 136.153H118.305C116.432 144.296 112.319 150.322 102.263 148.775L105.886 138.84ZM6.29482 163.657C22.7848 162.374 27.8132 154.76 33.5746 142.403C39.9466 128.702 42.1453 121.088 55.7444 116.406C48.9245 130.555 50.0035 122.676 45.2601 131.471C34.8775 150.668 33.3913 167.403 6.29482 169.439V163.657ZM168.345 97.3508C173.882 100.018 178.625 106.023 191.044 107.876L190.962 116.304C180.152 118.564 175.857 121.842 168.406 126.89L168.345 97.3508ZM146.684 125.628L146.582 130.412H62.6458C58.8999 130.412 55.378 128.275 58.0042 124.59C58.961 122.127 61.8315 117.403 63.2362 114.961C66.0456 110.095 65.3127 108.873 72.2344 108.894C78.9119 108.935 96.094 109.688 101.55 108.446C108.94 106.756 113.215 98.613 118.345 95.3557C122.437 92.7296 140.515 93.89 146.684 93.89C146.684 98.0837 145.421 103.662 149.513 104.435C154.277 103.458 151.631 99.7123 152.567 93.89L162.604 93.9307L162.502 130.351L152.526 130.29C152.303 126.687 152.425 122.635 152.425 118.991C152.425 114.94 153.443 110.97 149.554 110.237C146.134 110.767 146.663 112.721 146.684 116.304C146.684 119.399 146.643 122.513 146.684 125.628ZM100.573 90.8973C102.242 90.083 103.219 89.1058 104.522 88.0676L109.897 95.2743L106.354 98.6741C106.049 98.4298 106.11 98.4909 105.744 98.1041L103.301 94.8264C102.079 93.2792 101.082 92.5463 100.573 90.8973ZM41.1274 50.7717C41.4735 50.222 41.1681 50.6292 41.6567 50.0999L51.5303 42.7303C53.4033 41.3459 54.9912 40.2873 56.9048 38.8826L67.4707 31.0448C69.7711 29.294 82.047 19.8479 83.5331 19.3593C84.6935 20.9879 85.8743 22.7183 87.1161 24.4081C88.3173 26.0571 89.7423 27.7671 90.9434 29.3958C92.2667 31.2076 93.4475 32.877 94.6283 34.526C101.245 43.8703 109.897 51.8507 109.897 63.4344C109.897 83.3649 89.3555 96.2515 71.6644 87.355C67.9593 85.5025 64.4984 82.4488 62.4422 79.7411L41.1274 50.7717Z" fill="black"/>
<path fill-rule="evenodd" clip-rule="evenodd" d="M58.0039 124.589C59.6325 126.238 65.0681 125.627 68.4069 125.627H146.683C146.643 122.512 146.683 119.398 146.683 116.303C146.663 112.72 146.134 110.766 149.554 110.236L149.513 104.434C145.421 103.661 146.683 98.0827 146.683 93.8889C140.515 93.8889 122.437 92.7285 118.345 95.3547C113.215 98.612 108.94 106.755 101.55 108.445C96.0938 109.687 78.9116 108.934 72.2342 108.893C65.3124 108.872 66.0453 110.094 63.2359 114.959C61.8312 117.402 58.9607 122.126 58.0039 124.589Z" fill="#E61500"/>
<path fill-rule="evenodd" clip-rule="evenodd" d="M106.108 63.8007C106.108 84.3419 81.3321 93.7677 67.3868 79.7614C66.3486 78.7231 65.4528 77.237 64.3942 75.8526L52.9123 60.523C49.0036 54.8024 47.4156 54.7821 54.7852 48.6543C62.9692 41.8344 69.6059 44.3588 75.6726 42.7098C83.1439 40.7147 85.1797 35.1162 88.0095 34.6887C90.6153 34.3019 91.0429 36.1545 92.1015 37.437C94.2798 40.1447 95.7456 42.3637 97.8017 45.1527C101.364 50.0387 106.108 55.0671 106.108 63.8007ZM41.125 50.7715L62.4398 79.741C64.496 82.4486 67.9569 85.5023 71.662 87.3549C89.3531 96.2513 109.894 83.3647 109.894 63.4342C109.894 51.8505 101.242 43.8702 94.6259 34.5259C93.4451 32.8769 92.2643 31.2075 90.9411 29.3956C89.7399 27.767 88.3149 26.0569 87.1138 24.4079C85.8719 22.7182 84.6912 20.9878 83.5307 19.3591C82.0446 19.8477 69.7687 29.2938 67.4683 31.0446L56.9025 38.8825C54.9888 40.2872 53.4009 41.3458 51.5279 42.7301L41.6543 50.0997C41.1657 50.629 41.4711 50.2219 41.125 50.7715Z" fill="#E61500"/>
<path fill-rule="evenodd" clip-rule="evenodd" d="M56.1923 54.9651C57.3324 54.1508 58.0856 53.1736 59.2664 52.3797C64.193 49.0817 66.7174 49.387 72.6212 48.9188C82.7595 48.1045 85.9557 42.8521 88.4801 41.9157C89.2334 43.2796 90.6177 44.9286 91.6356 46.313C94.73 50.5475 99.1274 55.7998 100.043 60.5432C101.855 69.9283 95.7479 77.1961 89.5387 79.5576C85.4875 81.1048 80.8255 81.0234 76.7743 79.2115C72.4177 77.2572 71.3183 75.3842 68.8143 72.2084L56.1923 54.9651ZM106.11 63.8005C106.11 55.0669 101.367 50.0385 97.8041 45.1526C95.7479 42.3635 94.2822 40.1445 92.1039 37.4369C91.0452 36.1543 90.6177 34.3018 88.0119 34.6886C85.1821 35.1161 83.1463 40.7145 75.6749 42.7096C69.6083 44.3586 62.9715 41.8342 54.7876 48.6542C47.418 54.7819 49.0059 54.8023 52.9147 60.5229L64.3966 75.8525C65.4552 77.2368 66.351 78.7229 67.3892 79.7612C81.3345 93.7675 106.11 84.3418 106.11 63.8005Z" fill="black"/>
<path fill-rule="evenodd" clip-rule="evenodd" d="M146.684 125.627H68.4071C65.0684 125.627 59.6328 126.238 58.0041 124.589C55.378 128.274 58.8999 130.412 62.6458 130.412H146.582L146.684 125.627Z" fill="#BF2A2A"/>
<path fill-rule="evenodd" clip-rule="evenodd" d="M6.29492 163.656V169.438C33.3914 167.402 34.8776 150.668 45.2602 131.47C50.0036 122.676 48.9246 130.554 55.7445 116.406C42.1454 121.088 39.9467 128.702 33.5747 142.403C27.8133 154.76 22.7849 162.374 6.29492 163.656Z" fill="#2E393A"/>
<path fill-rule="evenodd" clip-rule="evenodd" d="M64.48 179.516C63.7878 181.674 61.752 185.175 63.4621 187.17C64.9686 188.901 69.8342 188.188 72.6232 188.229C75.3716 188.29 80.1964 189.002 81.7233 187.109C82.3544 186.335 84.3087 180.778 84.6548 179.373L64.48 179.516Z" fill="#868485"/>
<path fill-rule="evenodd" clip-rule="evenodd" d="M102.262 148.776C112.319 150.323 116.431 144.297 118.304 136.154H107.494C106.679 136.581 106.985 136.357 106.517 137.192C106.374 137.436 106.028 138.495 105.885 138.841L102.262 148.776Z" fill="#868485"/>
<path fill-rule="evenodd" clip-rule="evenodd" d="M100.57 90.8974C101.079 92.5464 102.077 93.2793 103.298 94.8265L105.741 98.1041C106.108 98.4909 106.047 98.4299 106.352 98.6742L109.894 95.2744L104.52 88.0676C103.217 89.1059 102.24 90.0831 100.57 90.8974Z" fill="#2E393A"/>
</svg>
