<svg width="174" height="174" viewBox="0 0 174 174" fill="none" xmlns="http://www.w3.org/2000/svg">
<path d="M86.9081 0.599854C39.2677 0.599854 0.650391 39.2172 0.650391 86.8576C0.650391 134.498 39.2677 173.115 86.9081 173.115C134.533 173.115 173.15 134.498 173.15 86.8576C173.15 39.2172 134.533 0.599854 86.9081 0.599854Z" fill="url(#paint0_radial_9_729)"/>
<path d="M123.572 74.7863C116.751 74.7863 114.426 78.2353 114.426 81.0993C114.426 84.2096 115.966 86.3653 125.143 91.1078C138.693 97.6672 142.927 103.98 142.927 113.203C142.927 127.031 132.38 134.468 118.122 134.468C110.608 134.468 104.125 132.928 100.43 130.772C99.8139 130.526 99.7215 130.064 99.7215 129.402V116.653C99.7215 115.775 100.137 115.528 100.769 115.944C106.204 119.47 112.44 121.056 118.122 121.056C124.943 121.056 127.807 118.192 127.807 114.327C127.807 111.217 125.805 108.476 117.09 103.949C104.834 98.0829 99.7215 92.1394 99.7215 82.1772C99.7215 71.0446 108.452 61.7906 123.572 61.7906C131.01 61.7906 136.199 62.8993 139.016 64.1927C139.725 64.6084 139.894 65.3167 139.894 65.9326V77.7734C139.894 78.4817 139.478 78.8974 138.601 78.6511C134.782 76.2337 129.177 74.7863 123.572 74.7863ZM49.3095 85.0411C51.2958 85.2105 52.8356 85.2105 56.2847 85.2105C66.3702 85.2105 75.8859 81.6844 75.8859 67.9343C75.8859 56.9712 69.0801 51.4434 57.5627 51.4434C54.129 51.4434 50.8339 51.6128 49.2634 51.6898L49.3095 85.0411ZM33.8965 39.1869C33.8965 38.571 35.0975 38.1552 35.8058 38.1552C41.3336 37.8935 49.5559 37.7395 58.0708 37.7395C81.9988 37.7395 91.3452 50.8583 91.3452 67.5956C91.3452 89.5372 75.424 98.9606 55.9151 98.9606C52.62 98.9606 51.5114 98.7912 49.1864 98.7912V131.942C49.1864 132.651 48.9246 132.974 48.1393 132.974H34.9281C34.2198 132.974 33.8965 132.728 33.8965 131.942V39.1869Z" fill="#31C4EF"/>
<defs>
<radialGradient id="paint0_radial_9_729" cx="0" cy="0" r="1" gradientUnits="userSpaceOnUse" gradientTransform="translate(54.1284 35.103) scale(213.927 207.12)">
<stop stop-color="#34364D" stop-opacity="0.980392"/>
<stop offset="1" stop-color="#0C0823"/>
</radialGradient>
</defs>
</svg>
