<svg width="154" height="63" viewBox="0 0 154 63" fill="none" xmlns="http://www.w3.org/2000/svg">
<path d="M18.6756 0L13.495 29.4885L12.2386 37.0829L10.9894 29.9331L5.71701 0L5.0959 0.0917544H0V62.9082H5.71701V33.2433L9.29543 53.7046H15.0971L18.7603 32.7987V63H24.4843V0.0917544H19.3884L18.6756 0ZM54.7703 0.183509H44.1409H39.6732V63H45.3902H54.7703V57.2759H45.3902V34.2244H52.9847V28.5074H45.3902V5.90052H54.7703V0.183509ZM84.4352 0.183509H69.9663V63H75.6833V34.6691H82.0285V63H87.8302V34.4926L84.887 31.6341L87.8302 28.6838V3.48667L84.4352 0.183509ZM82.0285 5.90052V28.7756H75.6833V5.90052H82.0285ZM106.421 0.183509L103.026 3.48667V59.6898L106.421 63H117.319L120.714 59.6898V34.3162H111.602V40.0332H114.905V57.2759H108.743V5.90052H114.905V18.0544H120.714V3.48667L117.319 0.183509H106.421ZM153.597 0.183509H147.788V57.2759H141.626V0.183509H135.902V59.6898L139.304 63H150.202L153.597 59.6898V0.183509Z" fill="#EE0E0E"/>
</svg>
