<svg width="155" height="66" viewBox="0 0 155 66" fill="none" xmlns="http://www.w3.org/2000/svg">
<path d="M0 0V65.3166H8.74367L7.34239 33.9738L11.9752 65.3166H18.5383L23.1854 33.9738L21.7698 65.3166H30.4777V0H20.6831L15.2567 40.8157L9.79463 0H0Z" fill="#E61500"/>
<path d="M41.0664 0V65.3166H58.5109V58.8035H49.8029V32.6511H57.4241L55.2364 26.1381H49.8029V6.55597H58.5109V0H41.0664Z" fill="#E61500"/>
<path d="M68.8184 0V65.3166H77.562V39.2143C78.7417 39.2143 79.6139 40.1794 79.7068 41.3591L81.9017 65.3166H90.5882L88.4005 41.3591C88.3218 39.8934 87.9929 38.485 87.3567 37.2553C89.3585 35.6682 90.5882 33.2445 90.5882 30.4706V8.73652C90.5882 3.91785 86.7204 0 81.9017 0H68.8184ZM77.562 6.55597H79.7068C80.9365 6.55597 81.9017 7.50683 81.9017 8.73652V30.4706C81.9017 31.7003 80.9365 32.6511 79.7068 32.6511H77.562V6.55597Z" fill="#E61500"/>
<path d="M109.922 0C105.146 0 101.229 3.91785 101.229 8.73652V56.6087C101.229 61.4488 105.146 65.3166 109.922 65.3166H114.305C119.123 65.3166 122.998 61.4488 122.998 56.6087V32.6511H114.305L111.566 39.2143H114.305V56.6087C114.305 57.8097 113.34 58.8035 112.11 58.8035C110.93 58.8035 109.922 57.8097 109.922 56.6087V8.73652C109.922 7.50683 110.93 6.55597 112.11 6.55597C113.34 6.55597 114.305 7.50683 114.305 8.73652V21.3623L122.998 15.7929V8.73652C122.998 3.91785 119.123 0 114.305 0H109.922Z" fill="#E61500"/>
<path d="M133.215 0V56.6087C133.215 61.4488 137.133 65.3166 141.966 65.3166H146.291C151.124 65.3166 154.999 61.4488 154.999 56.6087V0H146.291V56.6087C146.291 57.8097 145.34 58.8035 144.096 58.8035C142.917 58.8035 141.966 57.8097 141.966 56.6087V0H133.215Z" fill="#E61500"/>
</svg>
